<svg width="30" height="30" viewBox="0 0 30 30" fill="none" xmlns="http://www.w3.org/2000/svg">
<path d="M10.595 8.5499C12.4313 8.5499 13.92 7.06125 13.92 5.2249C13.92 3.38856 12.4313 1.8999 10.595 1.8999C8.75865 1.8999 7.27 3.38856 7.27 5.2249C7.27 7.06125 8.75865 8.5499 10.595 8.5499Z" fill="#965EEB"/>
<path d="M22.245 14.47C26.2408 14.47 29.48 11.2308 29.48 7.235C29.48 3.23922 26.2408 0 22.245 0C18.2492 0 15.01 3.23922 15.01 7.235C15.01 11.2308 18.2492 14.47 22.245 14.47Z" fill="#00AAFF"/>
<path d="M8.9 26.8C13.8153 26.8 17.8 22.8153 17.8 17.9C17.8 12.9847 13.8153 9 8.9 9C3.98467 9 0 12.9847 0 17.9C0 22.8153 3.98467 26.8 8.9 26.8Z" fill="#04E061"/>
<path d="M24.325 26.3799C27.2935 26.3799 29.7 23.9734 29.7 21.0049C29.7 18.0364 27.2935 15.6299 24.325 15.6299C21.3565 15.6299 18.95 18.0364 18.95 21.0049C18.95 23.9734 21.3565 26.3799 24.325 26.3799Z" fill="#FF4053"/>
</svg>
