<svg width="670" height="504" viewBox="0 0 670 504" fill="none" xmlns="http://www.w3.org/2000/svg">
<path d="M335.093 492.615H419.212V492.615C419.212 497.361 415.365 501.207 410.62 501.207H343.686C338.94 501.207 335.093 497.361 335.093 492.615V492.615Z" fill="#B4B4B4"/>
<path d="M446.215 386.425C446.692 385.262 447.824 384.502 449.081 384.502H592.653C594.854 384.502 596.353 386.735 595.519 388.772L550.27 499.284C549.793 500.447 548.661 501.207 547.404 501.207H403.832C401.63 501.207 400.132 498.974 400.966 496.937L446.215 386.425Z" fill="url(#paint0_linear_794_213)"/>
<ellipse cx="9.63123" cy="14.138" rx="9.63123" ry="14.138" transform="matrix(0.938298 0.345828 -0.334987 0.942223 499.099 428.981)" fill="white"/>
<path d="M105.342 460.664C106.908 442.402 90.3587 437.986 80.2005 437.974C78.953 437.972 77.8909 438.83 77.5351 440.026C76.9571 441.968 78.4489 443.918 80.4692 444.076C89.4302 444.774 101.467 448.667 99.2412 460.664C97.0848 472.287 87.2193 474.513 80.1931 474.04C78.2176 473.907 76.3616 475.376 76.3616 477.356C76.3616 478.823 77.3971 480.099 78.8564 480.253C88.3448 481.257 103.808 478.555 105.342 460.664Z" fill="url(#paint1_linear_794_213)"/>
<path d="M79.2995 430.773V498.11C79.2995 499.821 77.9129 501.207 76.2025 501.207H23.7855C22.075 501.207 20.6885 499.821 20.6885 498.11L20.6885 430.773C20.6885 429.062 22.0751 427.676 23.7855 427.676H76.2025C77.9129 427.676 79.2995 429.062 79.2995 430.773Z" fill="url(#paint2_linear_794_213)"/>
<path d="M188.318 306.55C202.019 296.863 252.995 279.414 276.77 271.9H303.475C319.324 275.9 354.93 285.515 370.567 291.97C386.204 298.424 414.713 336.645 426.159 354.395L413.705 378.677C382.008 410.52 407.547 438.634 424.452 449.033C399.095 449.033 388.177 439.351 385.887 434.51C388.423 449.14 390.466 485.071 391.17 501.208H204.686V471.881H133.559C127.004 398.86 171.192 318.659 188.318 306.55Z" fill="url(#paint3_linear_794_213)"/>
<ellipse cx="292.136" cy="294.938" rx="31.7526" ry="23.0384" fill="#944CA2"/>
<path d="M268.563 292.559C272.684 268.43 271.232 246.103 270.588 238.399C271.49 231.186 308.972 244.695 327.003 251.907C316.829 257.153 314.07 283.38 313.963 295.837C314.285 299.935 311.773 308.623 299.152 310.59C278.029 313.082 269.958 299.608 268.563 292.559Z" fill="url(#paint4_linear_794_213)"/>
<mask id="mask0_794_213" style="mask-type:alpha" maskUnits="userSpaceOnUse" x="268" y="236" width="60" height="75">
<path d="M268.563 292.559C272.684 268.43 271.232 246.103 270.588 238.399C271.49 231.186 308.972 244.695 327.003 251.907C316.829 257.153 314.07 283.38 313.963 295.837C314.285 299.935 311.773 308.623 299.152 310.59C278.029 313.082 269.958 299.608 268.563 292.559Z" fill="#BABABA"/>
</mask>
<g mask="url(#mask0_794_213)">
<path opacity="0.1" d="M320.764 276.941C295.38 272.908 276.561 250.186 270.324 239.329C284.812 236.286 317.388 232.025 331.79 239.329C346.193 246.632 330.44 267.446 320.764 276.941Z" fill="black"/>
</g>
<path d="M313.031 256.325C354.723 254.48 355.914 196.428 351.298 167.633C275.972 102.626 245.727 153.706 240.021 187.371C246.986 211.125 271.34 258.171 313.031 256.325Z" fill="url(#paint5_linear_794_213)"/>
<path d="M259.216 109.61C247.222 105.76 222.216 103.836 218.148 126.933C218.148 141.867 253.545 138.083 259.216 109.61Z" fill="#30235B"/>
<path d="M273.658 186.317L290.646 201.172L288.802 209.836L272.958 195.677L273.658 186.317Z" fill="#111111"/>
<path d="M256.385 199.675C270.886 212.184 271.826 231.717 270.484 239.92C265.784 238.638 252.659 230.333 237.755 207.365C213.988 157.944 242.622 120.98 259.909 108.676C306.233 81.2479 368.166 123.8 357.34 156.354C346.515 188.909 294.736 181.39 275.519 168.915C279.546 181.219 275.854 193.352 273.505 197.881C264.441 176.348 238.258 184.039 256.385 199.675Z" fill="#30235B"/>
<path d="M287.428 102.324C318.275 93.3025 337.062 109.563 342.6 118.821C336.379 115.411 319.137 110.635 299.939 118.821C269.584 133.022 262.953 163.302 263.431 176.667L243.331 175.205V167.687C245.177 149.658 256.581 111.345 287.428 102.324Z" fill="white"/>
<ellipse cx="251.563" cy="194.991" rx="23.5923" ry="29.3874" fill="white"/>
<ellipse cx="251.563" cy="194.991" rx="23.5923" ry="29.3874" fill="white"/>
<ellipse cx="251.563" cy="194.991" rx="11.2613" ry="14.0275" fill="#47A8BD"/>
<path opacity="0.5" d="M354.646 190.507C345.902 187.755 336.483 193.621 332.867 196.899C326.292 203.291 336.262 219.544 347.789 212.057C357.011 206.068 356.203 195.194 354.646 190.507Z" fill="#E6FCFF"/>
<path opacity="0.5" d="M319.825 205.474C319.079 197.051 309.342 198.11 304.567 199.692C301.29 200.699 294.734 203.489 294.734 206.596C294.734 210.48 297.173 216.629 303.126 219.629C311.348 223.771 320.757 216.004 319.825 205.474Z" fill="#E6FCFF"/>
<path d="M133.499 471.974C140.833 505.254 184.388 505.322 205.249 501.196L366.046 477.543C368.119 479.375 373.082 484.208 376.355 488.878C379.628 493.547 382.629 490.265 383.72 488.04C388.433 493.238 391.902 490.764 393.047 488.878C397.106 494.08 400.521 492.264 401.721 490.706C407.35 494.971 408.771 491.264 408.778 488.878C401.098 472.319 387.32 455.723 381.391 449.494L341.299 453.231L211.029 439.708C186.315 422.054 124.331 430.374 133.499 471.974Z" fill="url(#paint6_linear_794_213)"/>
<path d="M445.051 421.62C437.787 445.503 427.774 449.676 423.676 448.777C380.537 419.385 399.061 389.267 413.716 377.882L451.914 297.805C446.384 293.402 440.222 279.626 440.854 270.939C441.359 263.989 446.015 263.756 448.28 264.508C448.912 257.307 454.021 257.536 456.496 258.551C458.645 250.7 464.87 252.384 467.714 254.208C468.094 243.397 475.456 244.877 479.091 246.968L485.469 264.508C488.076 264.877 494.12 265.729 497.449 266.191C501.611 266.769 506.908 267.539 504.259 273.51C502.141 278.287 491.396 294.632 486.289 302.208C475.57 332.061 452.315 397.738 445.051 421.62Z" fill="url(#paint7_linear_794_213)"/>
<path d="M211.079 439.669L214.851 409.435" stroke="#30235B" stroke-width="0.619401"/>
<path d="M385.772 434.688C385.206 431.139 384.245 422.561 384.924 416.643" stroke="#30235B" stroke-width="0.619401"/>
<path d="M384.748 423.262L381.503 416.567" stroke="#30235B" stroke-width="0.619401"/>
<path d="M383.599 487.763L373.063 474.223" stroke="#30235B" stroke-width="0.619401"/>
<path d="M392.925 488.433L376.482 466.705" stroke="#30235B" stroke-width="0.619401"/>
<path d="M401.57 490.424L381.13 460.44" stroke="#30235B" stroke-width="0.619401"/>
<path d="M448.275 264.639C448.838 267.621 450.675 274.67 453.518 279.012" stroke="#30235B" stroke-width="0.619401"/>
<path d="M467.75 254.271C468.611 257.348 470.853 264.288 472.931 267.431" stroke="#30235B" stroke-width="0.619401"/>
<path d="M456.382 258.742C457.397 262.092 459.915 269.456 461.874 272.115" stroke="#30235B" stroke-width="0.619401"/>
<path d="M485.389 264.498L488.524 273.836" stroke="#30235B" stroke-width="0.619401"/>
<path d="M63.2991 412.046C44.7627 423.598 38.9299 413.063 38.3306 406.352C38.3306 396.59 38.3306 388.455 25.7468 374.015C-4.61454 339.848 4.97325 285.343 46.9198 281.886C88.8664 278.428 76.6819 305.477 61.9007 322.968C47.1488 340.424 56.4706 345.725 78.5481 358.281L78.6794 358.355C107.443 376.049 83.4733 391.912 69.2913 394.76C55.1094 397.607 67.2939 406.352 63.2991 412.046Z" fill="url(#paint8_linear_794_213)"/>
<path d="M246.799 222.894C240.232 221.49 227.202 212.718 228.378 192.565" stroke="#30235B" stroke-width="0.949425"/>
<path d="M339.336 114.816C335.76 109.411 327.312 101.423 310.281 100.604" stroke="#30235B" stroke-width="0.949425"/>
<path d="M413.664 377.812L425.389 353.331" stroke="#30235B" stroke-width="0.949425"/>
<path d="M315.679 450.437C311.781 463.831 314.054 478.962 315.679 484.854L326.517 483.289C324.257 465.736 325.575 454.886 326.517 451.656L315.679 450.437Z" fill="#30235B"/>
<rect width="20.5023" height="5.40992" rx="2.70496" transform="matrix(0.994291 0.106706 -0.102971 0.994684 311.385 444.7)" fill="url(#paint9_linear_794_213)"/>
<path fill-rule="evenodd" clip-rule="evenodd" d="M329.162 194.969C341.81 183.073 353.805 185.107 358.221 187.611C360.777 194.501 358.221 214.636 344.116 216.421C332.831 217.849 328.964 208.966 328.441 204.346C326.296 202.582 324.871 204.102 324.427 205.083C324.798 217.923 314.66 226.609 303.78 224.594C295.076 222.983 291.287 214.128 290.48 209.901H288.681V202.388C300.015 191.089 315.673 193.858 322.086 196.656C323.772 195.307 327.506 194.969 329.162 194.969ZM353.982 191.313C345.238 188.561 337.247 193.276 333.631 196.553C327.057 202.945 335.692 218.605 347.758 212.057C354.983 208.136 355.539 196 353.982 191.313ZM304.536 199.692C309.311 198.109 319.047 197.051 319.793 205.474C320.726 216.003 311.317 223.771 303.095 219.628C297.141 216.629 294.703 210.48 294.703 206.596C294.703 203.489 301.258 200.698 304.536 199.692Z" fill="#111111"/>
<rect x="0.949425" y="0.949425" width="142.101" height="113.101" rx="3.7977" stroke="#E2DFDF" stroke-width="1.89885"/>
<path d="M60.976 50.184H62.816V62.344C62.816 63.304 62.64 63.784 62.048 64.072C61.44 64.344 60.544 64.376 59.248 64.376C59.2 63.896 58.96 63.112 58.736 62.664C59.504 62.696 60.368 62.696 60.624 62.68C60.88 62.664 60.976 62.584 60.976 62.344V50.184ZM49.136 52.92H50.96V64.456H49.136V52.92ZM53.824 50.184H62.16V51.976H53.824V50.184ZM49.648 50.408L51.104 49.496C51.936 50.248 52.928 51.32 53.392 52.104L51.824 53.112C51.44 52.344 50.48 51.208 49.648 50.408ZM51.712 54.28H60.32V55.8H51.712V54.28ZM55.104 55.224H56.816V63.464H55.104V55.224ZM58.16 56.92H59.76V60.456C59.76 61.112 59.664 61.464 59.264 61.688C58.864 61.912 58.368 61.912 57.68 61.912C57.632 61.512 57.424 60.984 57.248 60.6C57.568 60.616 57.888 60.616 58 60.616C58.128 60.616 58.16 60.584 58.16 60.456V56.92ZM52.192 56.92H58.752V58.44H53.776V62.152H52.192V56.92ZM54.416 52.904L55.984 52.2C56.416 52.712 56.864 53.416 57.056 53.896L55.424 54.712C55.248 54.216 54.832 53.448 54.416 52.904ZM73.584 51.368H75.44V60.424H73.584V51.368ZM76.928 49.736H78.832V62.152C78.832 63.224 78.624 63.752 78.016 64.072C77.376 64.392 76.432 64.456 75.04 64.456C74.976 63.912 74.688 63.032 74.416 62.472C75.344 62.52 76.256 62.52 76.544 62.504C76.832 62.504 76.928 62.424 76.928 62.152V49.736ZM67.008 51.8V53.992H70.112V51.8H67.008ZM65.28 50.104H71.952V55.704H65.28V50.104ZM64.832 57.032H71.248V58.76H64.832V57.032ZM70.48 57.032H72.352C72.352 57.032 72.336 57.528 72.32 57.768C72.192 61.496 72.032 63.032 71.616 63.56C71.28 63.976 70.96 64.136 70.48 64.2C70.08 64.28 69.408 64.28 68.704 64.264C68.672 63.704 68.48 62.952 68.176 62.456C68.736 62.504 69.248 62.52 69.504 62.52C69.712 62.52 69.856 62.472 69.984 62.328C70.24 62.008 70.384 60.744 70.48 57.336V57.032ZM67.264 56.024H69.072C68.928 59.864 68.528 62.824 65.456 64.52C65.248 64.056 64.72 63.4 64.32 63.08C66.976 61.688 67.152 59.288 67.264 56.024ZM86.768 50.408H93.44V52.2H86.768V50.408ZM86.208 55.896H95.584V57.688H86.208V55.896ZM85.808 62.056H95.552V63.864H85.808V62.056ZM92.336 50.408H94.24C94.176 54.616 93.968 59.944 93.712 63.128H91.84C92.144 59.864 92.352 54.536 92.336 50.408ZM88.544 51.112L90.432 51.224C90.208 55.16 89.808 60.184 89.456 63.16H87.536C87.984 60.104 88.384 54.968 88.544 51.112ZM80.336 57.544C81.824 57.24 84.032 56.712 86.128 56.184L86.352 57.944C84.464 58.456 82.416 58.984 80.832 59.384L80.336 57.544ZM80.608 52.456H86.208V54.248H80.608V52.456ZM82.608 49.416H84.48V62.424C84.48 63.352 84.304 63.816 83.776 64.104C83.232 64.408 82.464 64.456 81.328 64.456C81.264 63.976 81.024 63.192 80.8 62.712C81.424 62.728 82.096 62.728 82.304 62.728C82.528 62.728 82.608 62.648 82.608 62.424V49.416Z" fill="#944CA2"/>
<rect opacity="0.5" width="144" height="115" fill="white"/>
<rect x="95.9494" y="195.949" width="81.1012" height="65.1012" rx="3.7977" stroke="#E2DFDF" stroke-width="1.89885"/>
<path d="M127.348 227.6C128.724 230.864 131.62 232.976 136.148 233.728C135.748 234.128 135.22 234.944 134.948 235.472C130.212 234.496 127.396 232.064 125.7 228.08L127.348 227.6ZM132.548 226.96H132.932L133.3 226.88L134.628 227.488C133.156 232.064 129.668 234.336 125.3 235.456C125.092 234.944 124.644 234.192 124.276 233.776C128.196 232.944 131.444 230.832 132.548 227.28V226.96ZM126.756 226.96H132.836V228.8H126.196L126.756 226.96ZM127.54 220.304L129.684 220.656C128.852 227.008 126.996 231.536 122.212 234.208C121.956 233.792 121.268 233.008 120.804 232.656C125.124 230.336 126.852 226.016 127.54 220.304ZM131.172 221.36L132.676 220.464C133.284 221.136 134.18 222.08 134.596 222.656L133.044 223.664C132.644 223.072 131.796 222.08 131.172 221.36ZM122.628 226C122.516 225.6 122.212 224.736 122.004 224.272C122.244 224.192 122.484 223.968 122.692 223.6C122.884 223.264 123.508 222.016 123.812 220.752L125.828 221.072C125.428 222.48 124.66 224.016 124.084 224.944V224.976C124.084 224.976 122.628 225.6 122.628 226ZM122.628 226V224.592L123.764 223.808H135.62L135.604 225.632H124.308C123.46 225.632 122.772 225.76 122.628 226ZM140.82 226.528H151.092V228.128H140.82V226.528ZM140.388 229.216H151.812V230.832H140.388V229.216ZM142.852 225.2H144.612V229.968H142.852V225.2ZM142.052 229.808H143.812V233.84H142.052V229.808ZM146.996 225.2H148.788V229.952H146.996V225.2ZM138.564 221.104H140.5V225.856C140.5 228.672 140.244 232.848 138.564 235.488C138.18 235.184 137.316 234.688 136.836 234.496C138.436 232.032 138.564 228.416 138.564 225.856V221.104ZM139.748 221.104H150.948V225.472H139.748V223.856H149.012V222.72H139.748V221.104ZM140.404 233.472C141.972 233.312 144.324 232.992 146.58 232.656L146.66 234.304C144.58 234.656 142.34 234.976 140.676 235.232L140.404 233.472ZM146.548 229.888C147.396 231.952 149.204 233.36 151.988 233.872C151.604 234.256 151.092 234.976 150.852 235.456C147.828 234.704 146.004 232.944 144.964 230.224L146.548 229.888ZM149.796 230.624L151.236 231.6C150.372 232.224 149.3 232.816 148.484 233.2L147.252 232.288C148.052 231.872 149.156 231.152 149.796 230.624Z" fill="#47A8BD"/>
<rect opacity="0.5" x="95" y="195" width="83" height="67" fill="white"/>
<rect x="552.949" y="124.949" width="116.101" height="71.1012" rx="3.7977" stroke="#E2DFDF" stroke-width="1.89885"/>
<path d="M596.584 154.368H598.44V163.424H596.584V154.368ZM599.928 152.736H601.832V165.152C601.832 166.224 601.624 166.752 601.016 167.072C600.376 167.392 599.432 167.456 598.04 167.456C597.976 166.912 597.688 166.032 597.416 165.472C598.344 165.52 599.256 165.52 599.544 165.504C599.832 165.504 599.928 165.424 599.928 165.152V152.736ZM590.008 154.8V156.992H593.112V154.8H590.008ZM588.28 153.104H594.952V158.704H588.28V153.104ZM587.832 160.032H594.248V161.76H587.832V160.032ZM593.48 160.032H595.352C595.352 160.032 595.336 160.528 595.32 160.768C595.192 164.496 595.032 166.032 594.616 166.56C594.28 166.976 593.96 167.136 593.48 167.2C593.08 167.28 592.408 167.28 591.704 167.264C591.672 166.704 591.48 165.952 591.176 165.456C591.736 165.504 592.248 165.52 592.504 165.52C592.712 165.52 592.856 165.472 592.984 165.328C593.24 165.008 593.384 163.744 593.48 160.336V160.032ZM590.264 159.024H592.072C591.928 162.864 591.528 165.824 588.456 167.52C588.248 167.056 587.72 166.4 587.32 166.08C589.976 164.688 590.152 162.288 590.264 159.024ZM611.272 156.304V157.088H615.608V156.304H611.272ZM611.272 154.272V155.072H615.608V154.272H611.272ZM609.512 152.912H617.448V158.464H609.512V152.912ZM608.728 159.2H618.264V160.752H608.728V159.2ZM612.52 160.048H614.328V166.56L612.52 165.776V160.048ZM611.048 162.88C611.848 165.264 613.48 165.568 615.448 165.568C615.992 165.568 617.992 165.568 618.696 165.536C618.456 165.936 618.232 166.736 618.168 167.232H615.368C612.776 167.232 610.92 166.656 609.896 163.264L611.048 162.88ZM613.832 162.16H617.4V163.664H613.832V162.16ZM609.688 161.232L611.416 161.44C611.08 164.048 610.264 166.112 608.856 167.408C608.568 167.104 607.848 166.528 607.448 166.272C608.776 165.2 609.448 163.424 609.688 161.232ZM603.352 160.528C604.664 160.256 606.6 159.728 608.44 159.216L608.696 160.944C607.016 161.456 605.208 161.984 603.768 162.384L603.352 160.528ZM603.512 155.456H608.6V157.216H603.512V155.456ZM605.24 152.432H607V165.2C607 166.08 606.856 166.576 606.36 166.864C605.88 167.168 605.176 167.232 604.152 167.232C604.104 166.752 603.88 165.968 603.656 165.456C604.232 165.472 604.792 165.472 604.984 165.472C605.176 165.472 605.24 165.408 605.24 165.184V152.432ZM622.84 156.384L624.136 155.312C625.096 155.776 626.376 156.512 627 157.072L625.64 158.256C625.064 157.696 623.816 156.896 622.84 156.384ZM630.056 153.616H630.424L630.728 153.536L631.976 154.256C629.896 158.112 625.368 160.192 620.712 161.136C620.552 160.656 620.168 159.904 619.832 159.488C624.152 158.8 628.472 156.88 630.056 153.888V153.616ZM625 153.616H630.488V155.184H625V153.616ZM625.88 152.368L627.976 152.816C626.344 154.672 624.232 156.176 621.24 157.36C620.968 156.912 620.376 156.256 619.96 155.952C622.808 155.024 624.792 153.68 625.88 152.368ZM625.016 162.448L626.408 161.376C627.384 161.904 628.664 162.72 629.304 163.344L627.816 164.528C627.256 163.92 626.008 163.024 625.016 162.448ZM632.072 159.456H632.456L632.792 159.376L634.072 160.032C632.12 164.8 627.496 166.688 621.992 167.456C621.848 166.928 621.496 166.144 621.176 165.712C626.248 165.184 630.584 163.504 632.072 159.728V159.456ZM627.368 159.456H632.584V161.056H627.368V159.456ZM628.488 157.904L630.584 158.384C628.792 160.48 626.328 162.176 622.792 163.456C622.568 163.008 622.024 162.304 621.624 161.968C624.968 160.96 627.256 159.424 628.488 157.904Z" fill="#47A8BD"/>
<rect opacity="0.5" x="552" y="124" width="118" height="73" fill="white"/>
<rect x="402.949" y="27.9494" width="90.1012" height="71.1012" rx="3.7977" stroke="#E2DFDF" stroke-width="1.89885"/>
<path d="M435.728 60.888H443.104V62.536H435.728V60.888ZM432.864 64.472H447.184V66.248H432.864V64.472ZM439.024 63.448H440.992V68.392C440.992 69.384 440.752 69.88 439.984 70.168C439.232 70.424 438.208 70.456 436.848 70.456C436.72 69.912 436.368 69.096 436.064 68.6C437.088 68.632 438.288 68.632 438.608 68.632C438.928 68.632 439.024 68.552 439.024 68.328V63.448ZM442.48 60.888H442.96L443.36 60.792L444.576 61.72C443.472 62.904 441.888 64.152 440.32 64.904C440.096 64.584 439.584 64.056 439.296 63.8C440.528 63.16 441.888 62.024 442.48 61.24V60.888ZM433.056 57.96H447.008V61.88H445.104V59.656H434.864V61.88H433.056V57.96ZM444.144 55.528L446.224 56.136C445.488 57.192 444.656 58.28 444 58.984L442.432 58.408C443.04 57.624 443.76 56.424 444.144 55.528ZM434.128 56.312L435.76 55.576C436.336 56.2 436.976 57.064 437.232 57.688L435.488 58.488C435.264 57.896 434.672 56.984 434.128 56.312ZM438.16 55.96L439.856 55.32C440.368 56.024 440.912 57 441.12 57.64L439.296 58.344C439.136 57.704 438.64 56.696 438.16 55.96ZM449.696 56.36H461.12V58.2H449.696V56.36ZM451.488 60.264L452.784 59.016C454.016 59.896 455.888 61.224 456.8 62.056L455.44 63.512C454.592 62.648 452.768 61.24 451.488 60.264ZM460.544 56.36H462.496C462.496 56.36 462.496 57.096 462.496 57.352C462.4 65.48 462.256 68.216 461.616 69.128C461.136 69.848 460.64 70.088 459.936 70.184C459.2 70.296 458 70.264 456.992 70.216C456.976 69.704 456.704 68.904 456.352 68.392C457.568 68.472 458.592 68.472 459.104 68.472C459.44 68.472 459.616 68.408 459.792 68.2C460.368 67.608 460.464 64.248 460.544 56.76V56.36ZM449.424 66.488C451.744 65.816 455.504 64.536 458.896 63.336L459.248 65.096C456.08 66.296 452.592 67.528 450.08 68.424L449.424 66.488Z" fill="#944CA2"/>
<rect opacity="0.5" x="402" y="27" width="92" height="73" fill="white"/>
<defs>
<linearGradient id="paint0_linear_794_213" x1="539.137" y1="296.914" x2="481.402" y2="532.13" gradientUnits="userSpaceOnUse">
<stop offset="0.0171777" stop-color="white"/>
<stop offset="1" stop-color="#D7D7D7"/>
</linearGradient>
<linearGradient id="paint1_linear_794_213" x1="115.283" y1="446.876" x2="76.361" y2="447.715" gradientUnits="userSpaceOnUse">
<stop stop-color="white"/>
<stop offset="1" stop-color="#CCCCCC"/>
</linearGradient>
<linearGradient id="paint2_linear_794_213" x1="49.994" y1="405.478" x2="49.994" y2="524.01" gradientUnits="userSpaceOnUse">
<stop stop-color="white"/>
<stop offset="1" stop-color="#CCCCCC"/>
</linearGradient>
<linearGradient id="paint3_linear_794_213" x1="294.689" y1="234.197" x2="278.976" y2="543.291" gradientUnits="userSpaceOnUse">
<stop stop-color="#C477D3"/>
<stop offset="1" stop-color="#7B108F"/>
</linearGradient>
<linearGradient id="paint4_linear_794_213" x1="294.525" y1="150.524" x2="291.715" y2="287.82" gradientUnits="userSpaceOnUse">
<stop stop-color="#FFEFE0"/>
<stop offset="1" stop-color="#FFBE99"/>
</linearGradient>
<linearGradient id="paint5_linear_794_213" x1="296.58" y1="136.314" x2="296.58" y2="256.378" gradientUnits="userSpaceOnUse">
<stop stop-color="#FFEFE0"/>
<stop offset="1" stop-color="#FFBE99"/>
</linearGradient>
<linearGradient id="paint6_linear_794_213" x1="270.68" y1="386.148" x2="270.68" y2="490.542" gradientUnits="userSpaceOnUse">
<stop offset="0.0677966" stop-color="#FFEFE0"/>
<stop offset="1" stop-color="#FFBE99"/>
</linearGradient>
<linearGradient id="paint7_linear_794_213" x1="413.578" y1="232.93" x2="515.153" y2="349.684" gradientUnits="userSpaceOnUse">
<stop stop-color="#FFEFE0"/>
<stop offset="1" stop-color="#FFBE99"/>
</linearGradient>
<linearGradient id="paint8_linear_794_213" x1="-20.6689" y1="426.918" x2="94.6998" y2="283.606" gradientUnits="userSpaceOnUse">
<stop stop-color="#ECECEC"/>
<stop offset="1" stop-color="#F5F5F5" stop-opacity="0"/>
</linearGradient>
<linearGradient id="paint9_linear_794_213" x1="9.86141" y1="-1.0579" x2="9.72025" y2="5.49825" gradientUnits="userSpaceOnUse">
<stop stop-color="#7F67CE"/>
<stop offset="1" stop-color="#30235B"/>
</linearGradient>
</defs>
</svg>
