<svg width="688" height="140" viewBox="0 0 688 140" fill="none" xmlns="http://www.w3.org/2000/svg">
<path d="M425.093 128.615H509.212V128.615C509.212 133.361 505.365 137.207 500.62 137.207H433.686C428.94 137.207 425.093 133.361 425.093 128.615V128.615Z" fill="#B4B4B4"/>
<path d="M536.215 22.4252C536.692 21.2617 537.824 20.5017 539.081 20.5017H682.653C684.854 20.5017 686.353 22.7346 685.519 24.7722L640.27 135.284C639.793 136.447 638.661 137.207 637.404 137.207H493.832C491.63 137.207 490.132 134.974 490.966 132.937L536.215 22.4252Z" fill="url(#paint0_linear_804_371)"/>
<ellipse cx="9.63123" cy="14.138" rx="9.63123" ry="14.138" transform="matrix(0.938298 0.345828 -0.334987 0.942223 589.099 64.9807)" fill="white"/>
<path d="M396.654 95.9884C398.219 77.7268 381.67 73.3103 371.512 73.2981C370.265 73.2966 369.202 74.1545 368.847 75.3501C368.269 77.2924 369.76 79.2427 371.781 79.4002C380.742 80.0986 392.778 83.9912 390.553 95.9884C388.396 107.612 378.531 109.838 371.505 109.365C369.529 109.232 367.673 110.7 367.673 112.68C367.673 114.148 368.709 115.423 370.168 115.577C379.656 116.581 395.12 113.879 396.654 95.9884Z" fill="url(#paint1_linear_804_371)"/>
<path d="M370.611 66.097V133.435C370.611 135.145 369.224 136.532 367.514 136.532H315.097C313.387 136.532 312 135.145 312 133.435L312 66.097C312 64.3866 313.387 63 315.097 63H367.514C369.224 63 370.611 64.3866 370.611 66.097Z" fill="url(#paint2_linear_804_371)"/>
<rect x="189.949" y="0.949425" width="88.1012" height="46.1012" rx="3.7977" stroke="#E2DFDF" stroke-width="1.89885"/>
<path d="M224.354 18.286H225.964V28.926C225.964 29.766 225.81 30.186 225.292 30.438C224.76 30.676 223.976 30.704 222.842 30.704C222.8 30.284 222.59 29.598 222.394 29.206C223.066 29.234 223.822 29.234 224.046 29.22C224.27 29.206 224.354 29.136 224.354 28.926V18.286ZM213.994 20.68H215.59V30.774H213.994V20.68ZM218.096 18.286H225.39V19.854H218.096V18.286ZM214.442 18.482L215.716 17.684C216.444 18.342 217.312 19.28 217.718 19.966L216.346 20.848C216.01 20.176 215.17 19.182 214.442 18.482ZM216.248 21.87H223.78V23.2H216.248V21.87ZM219.216 22.696H220.714V29.906H219.216V22.696ZM221.89 24.18H223.29V27.274C223.29 27.848 223.206 28.156 222.856 28.352C222.506 28.548 222.072 28.548 221.47 28.548C221.428 28.198 221.246 27.736 221.092 27.4C221.372 27.414 221.652 27.414 221.75 27.414C221.862 27.414 221.89 27.386 221.89 27.274V24.18ZM216.668 24.18H222.408V25.51H218.054V28.758H216.668V24.18ZM218.614 20.666L219.986 20.05C220.364 20.498 220.756 21.114 220.924 21.534L219.496 22.248C219.342 21.814 218.978 21.142 218.614 20.666ZM235.386 19.322H237.01V27.246H235.386V19.322ZM238.312 17.894H239.978V28.758C239.978 29.696 239.796 30.158 239.264 30.438C238.704 30.718 237.878 30.774 236.66 30.774C236.604 30.298 236.352 29.528 236.114 29.038C236.926 29.08 237.724 29.08 237.976 29.066C238.228 29.066 238.312 28.996 238.312 28.758V17.894ZM229.632 19.7V21.618H232.348V19.7H229.632ZM228.12 18.216H233.958V23.116H228.12V18.216ZM227.728 24.278H233.342V25.79H227.728V24.278ZM232.67 24.278H234.308C234.308 24.278 234.294 24.712 234.28 24.922C234.168 28.184 234.028 29.528 233.664 29.99C233.37 30.354 233.09 30.494 232.67 30.55C232.32 30.62 231.732 30.62 231.116 30.606C231.088 30.116 230.92 29.458 230.654 29.024C231.144 29.066 231.592 29.08 231.816 29.08C231.998 29.08 232.124 29.038 232.236 28.912C232.46 28.632 232.586 27.526 232.67 24.544V24.278ZM229.856 23.396H231.438C231.312 26.756 230.962 29.346 228.274 30.83C228.092 30.424 227.63 29.85 227.28 29.57C229.604 28.352 229.758 26.252 229.856 23.396ZM246.922 18.482H252.76V20.05H246.922V18.482ZM246.432 23.284H254.636V24.852H246.432V23.284ZM246.082 28.674H254.608V30.256H246.082V28.674ZM251.794 18.482H253.46C253.404 22.164 253.222 26.826 252.998 29.612H251.36C251.626 26.756 251.808 22.094 251.794 18.482ZM248.476 19.098L250.128 19.196C249.932 22.64 249.582 27.036 249.274 29.64H247.594C247.986 26.966 248.336 22.472 248.476 19.098ZM241.294 24.726C242.596 24.46 244.528 23.998 246.362 23.536L246.558 25.076C244.906 25.524 243.114 25.986 241.728 26.336L241.294 24.726ZM241.532 20.274H246.432V21.842H241.532V20.274ZM243.282 17.614H244.92V28.996C244.92 29.808 244.766 30.214 244.304 30.466C243.828 30.732 243.156 30.774 242.162 30.774C242.106 30.354 241.896 29.668 241.7 29.248C242.246 29.262 242.834 29.262 243.016 29.262C243.212 29.262 243.282 29.192 243.282 28.996V17.614Z" fill="#944CA2"/>
<rect opacity="0.5" x="189" width="90" height="48" fill="white"/>
<rect x="0.949425" y="24.9494" width="55.1012" height="37.1012" rx="3.7977" stroke="#E2DFDF" stroke-width="1.89885"/>
<path d="M20.492 43.4C21.696 46.256 24.23 48.104 28.192 48.762C27.842 49.112 27.38 49.826 27.142 50.288C22.998 49.434 20.534 47.306 19.05 43.82L20.492 43.4ZM25.042 42.84H25.378L25.7 42.77L26.862 43.302C25.574 47.306 22.522 49.294 18.7 50.274C18.518 49.826 18.126 49.168 17.804 48.804C21.234 48.076 24.076 46.228 25.042 43.12V42.84ZM19.974 42.84H25.294V44.45H19.484L19.974 42.84ZM20.66 37.016L22.536 37.324C21.808 42.882 20.184 46.844 15.998 49.182C15.774 48.818 15.172 48.132 14.766 47.824C18.546 45.794 20.058 42.014 20.66 37.016ZM23.838 37.94L25.154 37.156C25.686 37.744 26.47 38.57 26.834 39.074L25.476 39.956C25.126 39.438 24.384 38.57 23.838 37.94ZM16.362 42C16.264 41.65 15.998 40.894 15.816 40.488C16.026 40.418 16.236 40.222 16.418 39.9C16.586 39.606 17.132 38.514 17.398 37.408L19.162 37.688C18.812 38.92 18.14 40.264 17.636 41.076V41.104C17.636 41.104 16.362 41.65 16.362 42ZM16.362 42V40.768L17.356 40.082H27.73L27.716 41.678H17.832C17.09 41.678 16.488 41.79 16.362 42ZM32.28 42.462H41.268V43.862H32.28V42.462ZM31.902 44.814H41.898V46.228H31.902V44.814ZM34.058 41.3H35.598V45.472H34.058V41.3ZM33.358 45.332H34.898V48.86H33.358V45.332ZM37.684 41.3H39.252V45.458H37.684V41.3ZM30.306 37.716H32V41.874C32 44.338 31.776 47.992 30.306 50.302C29.97 50.036 29.214 49.602 28.794 49.434C30.194 47.278 30.306 44.114 30.306 41.874V37.716ZM31.342 37.716H41.142V41.538H31.342V40.124H39.448V39.13H31.342V37.716ZM31.916 48.538C33.288 48.398 35.346 48.118 37.32 47.824L37.39 49.266C35.57 49.574 33.61 49.854 32.154 50.078L31.916 48.538ZM37.292 45.402C38.034 47.208 39.616 48.44 42.052 48.888C41.716 49.224 41.268 49.854 41.058 50.274C38.412 49.616 36.816 48.076 35.906 45.696L37.292 45.402ZM40.134 46.046L41.394 46.9C40.638 47.446 39.7 47.964 38.986 48.3L37.908 47.502C38.608 47.138 39.574 46.508 40.134 46.046Z" fill="#47A8BD"/>
<rect opacity="0.5" y="24" width="57" height="39" fill="white"/>
<rect x="371.949" y="0.949425" width="85.1012" height="35.1012" rx="3.7977" stroke="#E2DFDF" stroke-width="1.89885"/>
<path d="M401.886 13.822H403.51V21.746H401.886V13.822ZM404.812 12.394H406.478V23.258C406.478 24.196 406.296 24.658 405.764 24.938C405.204 25.218 404.378 25.274 403.16 25.274C403.104 24.798 402.852 24.028 402.614 23.538C403.426 23.58 404.224 23.58 404.476 23.566C404.728 23.566 404.812 23.496 404.812 23.258V12.394ZM396.132 14.2V16.118H398.848V14.2H396.132ZM394.62 12.716H400.458V17.616H394.62V12.716ZM394.228 18.778H399.842V20.29H394.228V18.778ZM399.17 18.778H400.808C400.808 18.778 400.794 19.212 400.78 19.422C400.668 22.684 400.528 24.028 400.164 24.49C399.87 24.854 399.59 24.994 399.17 25.05C398.82 25.12 398.232 25.12 397.616 25.106C397.588 24.616 397.42 23.958 397.154 23.524C397.644 23.566 398.092 23.58 398.316 23.58C398.498 23.58 398.624 23.538 398.736 23.412C398.96 23.132 399.086 22.026 399.17 19.044V18.778ZM396.356 17.896H397.938C397.812 21.256 397.462 23.846 394.774 25.33C394.592 24.924 394.13 24.35 393.78 24.07C396.104 22.852 396.258 20.752 396.356 17.896ZM414.738 15.516V16.202H418.532V15.516H414.738ZM414.738 13.738V14.438H418.532V13.738H414.738ZM413.198 12.548H420.142V17.406H413.198V12.548ZM412.512 18.05H420.856V19.408H412.512V18.05ZM415.83 18.792H417.412V24.49L415.83 23.804V18.792ZM414.542 21.27C415.242 23.356 416.67 23.622 418.392 23.622C418.868 23.622 420.618 23.622 421.234 23.594C421.024 23.944 420.828 24.644 420.772 25.078H418.322C416.054 25.078 414.43 24.574 413.534 21.606L414.542 21.27ZM416.978 20.64H420.1V21.956H416.978V20.64ZM413.352 19.828L414.864 20.01C414.57 22.292 413.856 24.098 412.624 25.232C412.372 24.966 411.742 24.462 411.392 24.238C412.554 23.3 413.142 21.746 413.352 19.828ZM407.808 19.212C408.956 18.974 410.65 18.512 412.26 18.064L412.484 19.576C411.014 20.024 409.432 20.486 408.172 20.836L407.808 19.212ZM407.948 14.774H412.4V16.314H407.948V14.774ZM409.46 12.128H411V23.3C411 24.07 410.874 24.504 410.44 24.756C410.02 25.022 409.404 25.078 408.508 25.078C408.466 24.658 408.27 23.972 408.074 23.524C408.578 23.538 409.068 23.538 409.236 23.538C409.404 23.538 409.46 23.482 409.46 23.286V12.128ZM424.86 15.586L425.994 14.648C426.834 15.054 427.954 15.698 428.5 16.188L427.31 17.224C426.806 16.734 425.714 16.034 424.86 15.586ZM431.174 13.164H431.496L431.762 13.094L432.854 13.724C431.034 17.098 427.072 18.918 422.998 19.744C422.858 19.324 422.522 18.666 422.228 18.302C426.008 17.7 429.788 16.02 431.174 13.402V13.164ZM426.75 13.164H431.552V14.536H426.75V13.164ZM427.52 12.072L429.354 12.464C427.926 14.088 426.078 15.404 423.46 16.44C423.222 16.048 422.704 15.474 422.34 15.208C424.832 14.396 426.568 13.22 427.52 12.072ZM426.764 20.892L427.982 19.954C428.836 20.416 429.956 21.13 430.516 21.676L429.214 22.712C428.724 22.18 427.632 21.396 426.764 20.892ZM432.938 18.274H433.274L433.568 18.204L434.688 18.778C432.98 22.95 428.934 24.602 424.118 25.274C423.992 24.812 423.684 24.126 423.404 23.748C427.842 23.286 431.636 21.816 432.938 18.512V18.274ZM428.822 18.274H433.386V19.674H428.822V18.274ZM429.802 16.916L431.636 17.336C430.068 19.17 427.912 20.654 424.818 21.774C424.622 21.382 424.146 20.766 423.796 20.472C426.722 19.59 428.724 18.246 429.802 16.916Z" fill="#47A8BD"/>
<rect opacity="0.5" x="371" width="87" height="37" fill="white"/>
<rect x="104.949" y="98.9494" width="70.1012" height="40.1012" rx="3.7977" stroke="#E2DFDF" stroke-width="1.89885"/>
<path d="M129.262 117.402H135.716V118.844H129.262V117.402ZM126.756 120.538H139.286V122.092H126.756V120.538ZM132.146 119.642H133.868V123.968C133.868 124.836 133.658 125.27 132.986 125.522C132.328 125.746 131.432 125.774 130.242 125.774C130.13 125.298 129.822 124.584 129.556 124.15C130.452 124.178 131.502 124.178 131.782 124.178C132.062 124.178 132.146 124.108 132.146 123.912V119.642ZM135.17 117.402H135.59L135.94 117.318L137.004 118.13C136.038 119.166 134.652 120.258 133.28 120.916C133.084 120.636 132.636 120.174 132.384 119.95C133.462 119.39 134.652 118.396 135.17 117.71V117.402ZM126.924 114.84H139.132V118.27H137.466V116.324H128.506V118.27H126.924V114.84ZM136.626 112.712L138.446 113.244C137.802 114.168 137.074 115.12 136.5 115.736L135.128 115.232C135.66 114.546 136.29 113.496 136.626 112.712ZM127.862 113.398L129.29 112.754C129.794 113.3 130.354 114.056 130.578 114.602L129.052 115.302C128.856 114.784 128.338 113.986 127.862 113.398ZM131.39 113.09L132.874 112.53C133.322 113.146 133.798 114 133.98 114.56L132.384 115.176C132.244 114.616 131.81 113.734 131.39 113.09ZM141.484 113.44H151.48V115.05H141.484V113.44ZM143.052 116.856L144.186 115.764C145.264 116.534 146.902 117.696 147.7 118.424L146.51 119.698C145.768 118.942 144.172 117.71 143.052 116.856ZM150.976 113.44H152.684C152.684 113.44 152.684 114.084 152.684 114.308C152.6 121.42 152.474 123.814 151.914 124.612C151.494 125.242 151.06 125.452 150.444 125.536C149.8 125.634 148.75 125.606 147.868 125.564C147.854 125.116 147.616 124.416 147.308 123.968C148.372 124.038 149.268 124.038 149.716 124.038C150.01 124.038 150.164 123.982 150.318 123.8C150.822 123.282 150.906 120.342 150.976 113.79V113.44ZM141.246 122.302C143.276 121.714 146.566 120.594 149.534 119.544L149.842 121.084C147.07 122.134 144.018 123.212 141.82 123.996L141.246 122.302Z" fill="#944CA2"/>
<rect opacity="0.5" x="104" y="98" width="72" height="42" fill="white"/>
<defs>
<linearGradient id="paint0_linear_804_371" x1="629.137" y1="-67.0861" x2="571.402" y2="168.13" gradientUnits="userSpaceOnUse">
<stop offset="0.0171777" stop-color="white"/>
<stop offset="1" stop-color="#D7D7D7"/>
</linearGradient>
<linearGradient id="paint1_linear_804_371" x1="406.594" y1="82.2007" x2="367.672" y2="83.0397" gradientUnits="userSpaceOnUse">
<stop stop-color="white"/>
<stop offset="1" stop-color="#CCCCCC"/>
</linearGradient>
<linearGradient id="paint2_linear_804_371" x1="341.305" y1="40.8021" x2="341.305" y2="159.334" gradientUnits="userSpaceOnUse">
<stop stop-color="white"/>
<stop offset="1" stop-color="#CCCCCC"/>
</linearGradient>
</defs>
</svg>
