<svg width="376" height="433" viewBox="0 0 376 433" fill="none" xmlns="http://www.w3.org/2000/svg">
<path d="M113.093 423.615H197.212V423.615C197.212 428.361 193.365 432.207 188.62 432.207H121.686C116.94 432.207 113.093 428.361 113.093 423.615V423.615Z" fill="#B4B4B4"/>
<path d="M224.215 317.425C224.692 316.262 225.824 315.502 227.081 315.502H370.653C372.854 315.502 374.353 317.735 373.519 319.772L328.27 430.284C327.793 431.447 326.661 432.207 325.404 432.207H181.832C179.63 432.207 178.132 429.974 178.966 427.937L224.215 317.425Z" fill="url(#paint0_linear_792_2)"/>
<ellipse cx="9.63123" cy="14.138" rx="9.63123" ry="14.138" transform="matrix(0.938298 0.345828 -0.334987 0.942223 277.099 359.981)" fill="white"/>
<path d="M84.6537 390.988C86.2194 372.727 69.6702 368.31 59.512 368.298C58.2645 368.297 57.2024 369.154 56.8466 370.35C56.2686 372.292 57.7604 374.243 59.7807 374.4C68.7417 375.099 80.7784 378.991 78.5527 390.988C76.3963 402.612 66.5308 404.838 59.5046 404.365C57.5291 404.232 55.6731 405.7 55.6731 407.68C55.6731 409.148 56.7086 410.423 58.1679 410.577C67.6563 411.581 83.1198 408.879 84.6537 390.988Z" fill="url(#paint1_linear_792_2)"/>
<path d="M58.611 361.097V428.435C58.611 430.145 57.2244 431.532 55.514 431.532H3.09697C1.38654 431.532 -3.49261e-05 430.145 -3.36904e-05 428.435L1.49591e-05 361.097C1.61949e-05 359.387 1.38659 358 3.09702 358H55.514C57.2244 358 58.611 359.387 58.611 361.097Z" fill="url(#paint2_linear_792_2)"/>
<rect x="126.949" y="0.949425" width="129.101" height="83.1012" rx="3.7977" stroke="#E2DFDF" stroke-width="1.89885"/>
<path d="M180.476 35.184H182.316V47.344C182.316 48.304 182.14 48.784 181.548 49.072C180.94 49.344 180.044 49.376 178.748 49.376C178.7 48.896 178.46 48.112 178.236 47.664C179.004 47.696 179.868 47.696 180.124 47.68C180.38 47.664 180.476 47.584 180.476 47.344V35.184ZM168.636 37.92H170.46V49.456H168.636V37.92ZM173.324 35.184H181.66V36.976H173.324V35.184ZM169.148 35.408L170.604 34.496C171.436 35.248 172.428 36.32 172.892 37.104L171.324 38.112C170.94 37.344 169.98 36.208 169.148 35.408ZM171.212 39.28H179.82V40.8H171.212V39.28ZM174.604 40.224H176.316V48.464H174.604V40.224ZM177.66 41.92H179.26V45.456C179.26 46.112 179.164 46.464 178.764 46.688C178.364 46.912 177.868 46.912 177.18 46.912C177.132 46.512 176.924 45.984 176.748 45.6C177.068 45.616 177.388 45.616 177.5 45.616C177.628 45.616 177.66 45.584 177.66 45.456V41.92ZM171.692 41.92H178.252V43.44H173.276V47.152H171.692V41.92ZM173.916 37.904L175.484 37.2C175.916 37.712 176.364 38.416 176.556 38.896L174.924 39.712C174.748 39.216 174.332 38.448 173.916 37.904ZM193.084 36.368H194.94V45.424H193.084V36.368ZM196.428 34.736H198.332V47.152C198.332 48.224 198.124 48.752 197.516 49.072C196.876 49.392 195.932 49.456 194.54 49.456C194.476 48.912 194.188 48.032 193.916 47.472C194.844 47.52 195.756 47.52 196.044 47.504C196.332 47.504 196.428 47.424 196.428 47.152V34.736ZM186.508 36.8V38.992H189.612V36.8H186.508ZM184.78 35.104H191.452V40.704H184.78V35.104ZM184.332 42.032H190.748V43.76H184.332V42.032ZM189.98 42.032H191.852C191.852 42.032 191.836 42.528 191.82 42.768C191.692 46.496 191.532 48.032 191.116 48.56C190.78 48.976 190.46 49.136 189.98 49.2C189.58 49.28 188.908 49.28 188.204 49.264C188.172 48.704 187.98 47.952 187.676 47.456C188.236 47.504 188.748 47.52 189.004 47.52C189.212 47.52 189.356 47.472 189.484 47.328C189.74 47.008 189.884 45.744 189.98 42.336V42.032ZM186.764 41.024H188.572C188.428 44.864 188.028 47.824 184.956 49.52C184.748 49.056 184.22 48.4 183.82 48.08C186.476 46.688 186.652 44.288 186.764 41.024ZM206.268 35.408H212.94V37.2H206.268V35.408ZM205.708 40.896H215.084V42.688H205.708V40.896ZM205.308 47.056H215.052V48.864H205.308V47.056ZM211.836 35.408H213.74C213.676 39.616 213.468 44.944 213.212 48.128H211.34C211.644 44.864 211.852 39.536 211.836 35.408ZM208.044 36.112L209.932 36.224C209.708 40.16 209.308 45.184 208.956 48.16H207.036C207.484 45.104 207.884 39.968 208.044 36.112ZM199.836 42.544C201.324 42.24 203.532 41.712 205.628 41.184L205.852 42.944C203.964 43.456 201.916 43.984 200.332 44.384L199.836 42.544ZM200.108 37.456H205.708V39.248H200.108V37.456ZM202.108 34.416H203.98V47.424C203.98 48.352 203.804 48.816 203.276 49.104C202.732 49.408 201.964 49.456 200.828 49.456C200.764 48.976 200.524 48.192 200.3 47.712C200.924 47.728 201.596 47.728 201.804 47.728C202.028 47.728 202.108 47.648 202.108 47.424V34.416Z" fill="#944CA2"/>
<rect opacity="0.5" x="126" width="131" height="85" fill="white"/>
<rect x="85.9494" y="291.949" width="81.1012" height="65.1012" rx="3.7977" stroke="#E2DFDF" stroke-width="1.89885"/>
<path d="M117.348 323.6C118.724 326.864 121.62 328.976 126.148 329.728C125.748 330.128 125.22 330.944 124.948 331.472C120.212 330.496 117.396 328.064 115.7 324.08L117.348 323.6ZM122.548 322.96H122.932L123.3 322.88L124.628 323.488C123.156 328.064 119.668 330.336 115.3 331.456C115.092 330.944 114.644 330.192 114.276 329.776C118.196 328.944 121.444 326.832 122.548 323.28V322.96ZM116.756 322.96H122.836V324.8H116.196L116.756 322.96ZM117.54 316.304L119.684 316.656C118.852 323.008 116.996 327.536 112.212 330.208C111.956 329.792 111.268 329.008 110.804 328.656C115.124 326.336 116.852 322.016 117.54 316.304ZM121.172 317.36L122.676 316.464C123.284 317.136 124.18 318.08 124.596 318.656L123.044 319.664C122.644 319.072 121.796 318.08 121.172 317.36ZM112.628 322C112.516 321.6 112.212 320.736 112.004 320.272C112.244 320.192 112.484 319.968 112.692 319.6C112.884 319.264 113.508 318.016 113.812 316.752L115.828 317.072C115.428 318.48 114.66 320.016 114.084 320.944V320.976C114.084 320.976 112.628 321.6 112.628 322ZM112.628 322V320.592L113.764 319.808H125.62L125.604 321.632H114.308C113.46 321.632 112.772 321.76 112.628 322ZM130.82 322.528H141.092V324.128H130.82V322.528ZM130.388 325.216H141.812V326.832H130.388V325.216ZM132.852 321.2H134.612V325.968H132.852V321.2ZM132.052 325.808H133.812V329.84H132.052V325.808ZM136.996 321.2H138.788V325.952H136.996V321.2ZM128.564 317.104H130.5V321.856C130.5 324.672 130.244 328.848 128.564 331.488C128.18 331.184 127.316 330.688 126.836 330.496C128.436 328.032 128.564 324.416 128.564 321.856V317.104ZM129.748 317.104H140.948V321.472H129.748V319.856H139.012V318.72H129.748V317.104ZM130.404 329.472C131.972 329.312 134.324 328.992 136.58 328.656L136.66 330.304C134.58 330.656 132.34 330.976 130.676 331.232L130.404 329.472ZM136.548 325.888C137.396 327.952 139.204 329.36 141.988 329.872C141.604 330.256 141.092 330.976 140.852 331.456C137.828 330.704 136.004 328.944 134.964 326.224L136.548 325.888ZM139.796 326.624L141.236 327.6C140.372 328.224 139.3 328.816 138.484 329.2L137.252 328.288C138.052 327.872 139.156 327.152 139.796 326.624Z" fill="#47A8BD"/>
<rect opacity="0.5" x="85" y="291" width="83" height="67" fill="white"/>
<rect x="222.949" y="108.949" width="116.101" height="71.1012" rx="3.7977" stroke="#E2DFDF" stroke-width="1.89885"/>
<path d="M266.584 138.368H268.44V147.424H266.584V138.368ZM269.928 136.736H271.832V149.152C271.832 150.224 271.624 150.752 271.016 151.072C270.376 151.392 269.432 151.456 268.04 151.456C267.976 150.912 267.688 150.032 267.416 149.472C268.344 149.52 269.256 149.52 269.544 149.504C269.832 149.504 269.928 149.424 269.928 149.152V136.736ZM260.008 138.8V140.992H263.112V138.8H260.008ZM258.28 137.104H264.952V142.704H258.28V137.104ZM257.832 144.032H264.248V145.76H257.832V144.032ZM263.48 144.032H265.352C265.352 144.032 265.336 144.528 265.32 144.768C265.192 148.496 265.032 150.032 264.616 150.56C264.28 150.976 263.96 151.136 263.48 151.2C263.08 151.28 262.408 151.28 261.704 151.264C261.672 150.704 261.48 149.952 261.176 149.456C261.736 149.504 262.248 149.52 262.504 149.52C262.712 149.52 262.856 149.472 262.984 149.328C263.24 149.008 263.384 147.744 263.48 144.336V144.032ZM260.264 143.024H262.072C261.928 146.864 261.528 149.824 258.456 151.52C258.248 151.056 257.72 150.4 257.32 150.08C259.976 148.688 260.152 146.288 260.264 143.024ZM281.272 140.304V141.088H285.608V140.304H281.272ZM281.272 138.272V139.072H285.608V138.272H281.272ZM279.512 136.912H287.448V142.464H279.512V136.912ZM278.728 143.2H288.264V144.752H278.728V143.2ZM282.52 144.048H284.328V150.56L282.52 149.776V144.048ZM281.048 146.88C281.848 149.264 283.48 149.568 285.448 149.568C285.992 149.568 287.992 149.568 288.696 149.536C288.456 149.936 288.232 150.736 288.168 151.232H285.368C282.776 151.232 280.92 150.656 279.896 147.264L281.048 146.88ZM283.832 146.16H287.4V147.664H283.832V146.16ZM279.688 145.232L281.416 145.44C281.08 148.048 280.264 150.112 278.856 151.408C278.568 151.104 277.848 150.528 277.448 150.272C278.776 149.2 279.448 147.424 279.688 145.232ZM273.352 144.528C274.664 144.256 276.6 143.728 278.44 143.216L278.696 144.944C277.016 145.456 275.208 145.984 273.768 146.384L273.352 144.528ZM273.512 139.456H278.6V141.216H273.512V139.456ZM275.24 136.432H277V149.2C277 150.08 276.856 150.576 276.36 150.864C275.88 151.168 275.176 151.232 274.152 151.232C274.104 150.752 273.88 149.968 273.656 149.456C274.232 149.472 274.792 149.472 274.984 149.472C275.176 149.472 275.24 149.408 275.24 149.184V136.432ZM292.84 140.384L294.136 139.312C295.096 139.776 296.376 140.512 297 141.072L295.64 142.256C295.064 141.696 293.816 140.896 292.84 140.384ZM300.056 137.616H300.424L300.728 137.536L301.976 138.256C299.896 142.112 295.368 144.192 290.712 145.136C290.552 144.656 290.168 143.904 289.832 143.488C294.152 142.8 298.472 140.88 300.056 137.888V137.616ZM295 137.616H300.488V139.184H295V137.616ZM295.88 136.368L297.976 136.816C296.344 138.672 294.232 140.176 291.24 141.36C290.968 140.912 290.376 140.256 289.96 139.952C292.808 139.024 294.792 137.68 295.88 136.368ZM295.016 146.448L296.408 145.376C297.384 145.904 298.664 146.72 299.304 147.344L297.816 148.528C297.256 147.92 296.008 147.024 295.016 146.448ZM302.072 143.456H302.456L302.792 143.376L304.072 144.032C302.12 148.8 297.496 150.688 291.992 151.456C291.848 150.928 291.496 150.144 291.176 149.712C296.248 149.184 300.584 147.504 302.072 143.728V143.456ZM297.368 143.456H302.584V145.056H297.368V143.456ZM298.488 141.904L300.584 142.384C298.792 144.48 296.328 146.176 292.792 147.456C292.568 147.008 292.024 146.304 291.624 145.968C294.968 144.96 297.256 143.424 298.488 141.904Z" fill="#47A8BD"/>
<rect opacity="0.5" x="222" y="108" width="118" height="73" fill="white"/>
<rect x="177.949" y="207.949" width="90.1012" height="71.1012" rx="3.7977" stroke="#E2DFDF" stroke-width="1.89885"/>
<path d="M210.728 240.888H218.104V242.536H210.728V240.888ZM207.864 244.472H222.184V246.248H207.864V244.472ZM214.024 243.448H215.992V248.392C215.992 249.384 215.752 249.88 214.984 250.168C214.232 250.424 213.208 250.456 211.848 250.456C211.72 249.912 211.368 249.096 211.064 248.6C212.088 248.632 213.288 248.632 213.608 248.632C213.928 248.632 214.024 248.552 214.024 248.328V243.448ZM217.48 240.888H217.96L218.36 240.792L219.576 241.72C218.472 242.904 216.888 244.152 215.32 244.904C215.096 244.584 214.584 244.056 214.296 243.8C215.528 243.16 216.888 242.024 217.48 241.24V240.888ZM208.056 237.96H222.008V241.88H220.104V239.656H209.864V241.88H208.056V237.96ZM219.144 235.528L221.224 236.136C220.488 237.192 219.656 238.28 219 238.984L217.432 238.408C218.04 237.624 218.76 236.424 219.144 235.528ZM209.128 236.312L210.76 235.576C211.336 236.2 211.976 237.064 212.232 237.688L210.488 238.488C210.264 237.896 209.672 236.984 209.128 236.312ZM213.16 235.96L214.856 235.32C215.368 236.024 215.912 237 216.12 237.64L214.296 238.344C214.136 237.704 213.64 236.696 213.16 235.96ZM224.696 236.36H236.12V238.2H224.696V236.36ZM226.488 240.264L227.784 239.016C229.016 239.896 230.888 241.224 231.8 242.056L230.44 243.512C229.592 242.648 227.768 241.24 226.488 240.264ZM235.544 236.36H237.496C237.496 236.36 237.496 237.096 237.496 237.352C237.4 245.48 237.256 248.216 236.616 249.128C236.136 249.848 235.64 250.088 234.936 250.184C234.2 250.296 233 250.264 231.992 250.216C231.976 249.704 231.704 248.904 231.352 248.392C232.568 248.472 233.592 248.472 234.104 248.472C234.44 248.472 234.616 248.408 234.792 248.2C235.368 247.608 235.464 244.248 235.544 236.76V236.36ZM224.424 246.488C226.744 245.816 230.504 244.536 233.896 243.336L234.248 245.096C231.08 246.296 227.592 247.528 225.08 248.424L224.424 246.488Z" fill="#944CA2"/>
<rect opacity="0.5" x="177" y="207" width="92" height="73" fill="white"/>
<defs>
<linearGradient id="paint0_linear_792_2" x1="317.137" y1="227.914" x2="259.402" y2="463.13" gradientUnits="userSpaceOnUse">
<stop offset="0.0171777" stop-color="white"/>
<stop offset="1" stop-color="#D7D7D7"/>
</linearGradient>
<linearGradient id="paint1_linear_792_2" x1="94.5942" y1="377.201" x2="55.6725" y2="378.04" gradientUnits="userSpaceOnUse">
<stop stop-color="white"/>
<stop offset="1" stop-color="#CCCCCC"/>
</linearGradient>
<linearGradient id="paint2_linear_792_2" x1="29.3055" y1="335.802" x2="29.3055" y2="454.334" gradientUnits="userSpaceOnUse">
<stop stop-color="white"/>
<stop offset="1" stop-color="#CCCCCC"/>
</linearGradient>
</defs>
</svg>
