<svg width="376" height="171" viewBox="0 0 376 171" fill="none" xmlns="http://www.w3.org/2000/svg">
<path d="M113.093 161.615H197.212V161.615C197.212 166.361 193.365 170.207 188.62 170.207H121.686C116.94 170.207 113.093 166.361 113.093 161.615V161.615Z" fill="#B4B4B4"/>
<path d="M224.215 55.4252C224.692 54.2617 225.824 53.5017 227.081 53.5017H370.653C372.854 53.5017 374.353 55.7346 373.519 57.7722L328.27 168.284C327.793 169.447 326.661 170.207 325.404 170.207H181.832C179.63 170.207 178.132 167.974 178.966 165.937L224.215 55.4252Z" fill="url(#paint0_linear_802_351)"/>
<ellipse cx="9.63123" cy="14.138" rx="9.63123" ry="14.138" transform="matrix(0.938298 0.345828 -0.334987 0.942223 277.099 97.9807)" fill="white"/>
<path d="M84.6537 128.988C86.2194 110.727 69.6701 106.31 59.512 106.298C58.2645 106.297 57.2024 107.154 56.8466 108.35C56.2686 110.292 57.7604 112.243 59.7807 112.4C68.7417 113.099 80.7783 116.991 78.5526 128.988C76.3963 140.612 66.5308 142.838 59.5046 142.365C57.5291 142.232 55.6731 143.7 55.6731 145.68C55.6731 147.148 56.7086 148.423 58.1679 148.577C67.6563 149.581 83.1198 146.879 84.6537 128.988Z" fill="url(#paint1_linear_802_351)"/>
<path d="M58.611 99.097V166.435C58.611 168.145 57.2244 169.532 55.514 169.532H3.09697C1.38654 169.532 -3.49261e-05 168.145 -3.36904e-05 166.435L1.49591e-05 99.097C1.61949e-05 97.3866 1.38659 96 3.09702 96H55.514C57.2244 96 58.611 97.3866 58.611 99.097Z" fill="url(#paint2_linear_802_351)"/>
<rect x="132.949" y="0.949425" width="88.1012" height="46.1012" rx="3.7977" stroke="#E2DFDF" stroke-width="1.89885"/>
<path d="M167.354 18.286H168.964V28.926C168.964 29.766 168.81 30.186 168.292 30.438C167.76 30.676 166.976 30.704 165.842 30.704C165.8 30.284 165.59 29.598 165.394 29.206C166.066 29.234 166.822 29.234 167.046 29.22C167.27 29.206 167.354 29.136 167.354 28.926V18.286ZM156.994 20.68H158.59V30.774H156.994V20.68ZM161.096 18.286H168.39V19.854H161.096V18.286ZM157.442 18.482L158.716 17.684C159.444 18.342 160.312 19.28 160.718 19.966L159.346 20.848C159.01 20.176 158.17 19.182 157.442 18.482ZM159.248 21.87H166.78V23.2H159.248V21.87ZM162.216 22.696H163.714V29.906H162.216V22.696ZM164.89 24.18H166.29V27.274C166.29 27.848 166.206 28.156 165.856 28.352C165.506 28.548 165.072 28.548 164.47 28.548C164.428 28.198 164.246 27.736 164.092 27.4C164.372 27.414 164.652 27.414 164.75 27.414C164.862 27.414 164.89 27.386 164.89 27.274V24.18ZM159.668 24.18H165.408V25.51H161.054V28.758H159.668V24.18ZM161.614 20.666L162.986 20.05C163.364 20.498 163.756 21.114 163.924 21.534L162.496 22.248C162.342 21.814 161.978 21.142 161.614 20.666ZM178.386 19.322H180.01V27.246H178.386V19.322ZM181.312 17.894H182.978V28.758C182.978 29.696 182.796 30.158 182.264 30.438C181.704 30.718 180.878 30.774 179.66 30.774C179.604 30.298 179.352 29.528 179.114 29.038C179.926 29.08 180.724 29.08 180.976 29.066C181.228 29.066 181.312 28.996 181.312 28.758V17.894ZM172.632 19.7V21.618H175.348V19.7H172.632ZM171.12 18.216H176.958V23.116H171.12V18.216ZM170.728 24.278H176.342V25.79H170.728V24.278ZM175.67 24.278H177.308C177.308 24.278 177.294 24.712 177.28 24.922C177.168 28.184 177.028 29.528 176.664 29.99C176.37 30.354 176.09 30.494 175.67 30.55C175.32 30.62 174.732 30.62 174.116 30.606C174.088 30.116 173.92 29.458 173.654 29.024C174.144 29.066 174.592 29.08 174.816 29.08C174.998 29.08 175.124 29.038 175.236 28.912C175.46 28.632 175.586 27.526 175.67 24.544V24.278ZM172.856 23.396H174.438C174.312 26.756 173.962 29.346 171.274 30.83C171.092 30.424 170.63 29.85 170.28 29.57C172.604 28.352 172.758 26.252 172.856 23.396ZM189.922 18.482H195.76V20.05H189.922V18.482ZM189.432 23.284H197.636V24.852H189.432V23.284ZM189.082 28.674H197.608V30.256H189.082V28.674ZM194.794 18.482H196.46C196.404 22.164 196.222 26.826 195.998 29.612H194.36C194.626 26.756 194.808 22.094 194.794 18.482ZM191.476 19.098L193.128 19.196C192.932 22.64 192.582 27.036 192.274 29.64H190.594C190.986 26.966 191.336 22.472 191.476 19.098ZM184.294 24.726C185.596 24.46 187.528 23.998 189.362 23.536L189.558 25.076C187.906 25.524 186.114 25.986 184.728 26.336L184.294 24.726ZM184.532 20.274H189.432V21.842H184.532V20.274ZM186.282 17.614H187.92V28.996C187.92 29.808 187.766 30.214 187.304 30.466C186.828 30.732 186.156 30.774 185.162 30.774C185.106 30.354 184.896 29.668 184.7 29.248C185.246 29.262 185.834 29.262 186.016 29.262C186.212 29.262 186.282 29.192 186.282 28.996V17.614Z" fill="#944CA2"/>
<rect opacity="0.5" x="132" width="90" height="48" fill="white"/>
<rect x="31.9494" y="35.9494" width="55.1012" height="37.1012" rx="3.7977" stroke="#E2DFDF" stroke-width="1.89885"/>
<path d="M51.492 54.4C52.696 57.256 55.23 59.104 59.192 59.762C58.842 60.112 58.38 60.826 58.142 61.288C53.998 60.434 51.534 58.306 50.05 54.82L51.492 54.4ZM56.042 53.84H56.378L56.7 53.77L57.862 54.302C56.574 58.306 53.522 60.294 49.7 61.274C49.518 60.826 49.126 60.168 48.804 59.804C52.234 59.076 55.076 57.228 56.042 54.12V53.84ZM50.974 53.84H56.294V55.45H50.484L50.974 53.84ZM51.66 48.016L53.536 48.324C52.808 53.882 51.184 57.844 46.998 60.182C46.774 59.818 46.172 59.132 45.766 58.824C49.546 56.794 51.058 53.014 51.66 48.016ZM54.838 48.94L56.154 48.156C56.686 48.744 57.47 49.57 57.834 50.074L56.476 50.956C56.126 50.438 55.384 49.57 54.838 48.94ZM47.362 53C47.264 52.65 46.998 51.894 46.816 51.488C47.026 51.418 47.236 51.222 47.418 50.9C47.586 50.606 48.132 49.514 48.398 48.408L50.162 48.688C49.812 49.92 49.14 51.264 48.636 52.076V52.104C48.636 52.104 47.362 52.65 47.362 53ZM47.362 53V51.768L48.356 51.082H58.73L58.716 52.678H48.832C48.09 52.678 47.488 52.79 47.362 53ZM63.28 53.462H72.268V54.862H63.28V53.462ZM62.902 55.814H72.898V57.228H62.902V55.814ZM65.058 52.3H66.598V56.472H65.058V52.3ZM64.358 56.332H65.898V59.86H64.358V56.332ZM68.684 52.3H70.252V56.458H68.684V52.3ZM61.306 48.716H63V52.874C63 55.338 62.776 58.992 61.306 61.302C60.97 61.036 60.214 60.602 59.794 60.434C61.194 58.278 61.306 55.114 61.306 52.874V48.716ZM62.342 48.716H72.142V52.538H62.342V51.124H70.448V50.13H62.342V48.716ZM62.916 59.538C64.288 59.398 66.346 59.118 68.32 58.824L68.39 60.266C66.57 60.574 64.61 60.854 63.154 61.078L62.916 59.538ZM68.292 56.402C69.034 58.208 70.616 59.44 73.052 59.888C72.716 60.224 72.268 60.854 72.058 61.274C69.412 60.616 67.816 59.076 66.906 56.696L68.292 56.402ZM71.134 57.046L72.394 57.9C71.638 58.446 70.7 58.964 69.986 59.3L68.908 58.502C69.608 58.138 70.574 57.508 71.134 57.046Z" fill="#47A8BD"/>
<rect opacity="0.5" x="31" y="35" width="57" height="39" fill="white"/>
<rect x="281.949" y="11.9494" width="85.1012" height="35.1012" rx="3.7977" stroke="#E2DFDF" stroke-width="1.89885"/>
<path d="M311.886 24.822H313.51V32.746H311.886V24.822ZM314.812 23.394H316.478V34.258C316.478 35.196 316.296 35.658 315.764 35.938C315.204 36.218 314.378 36.274 313.16 36.274C313.104 35.798 312.852 35.028 312.614 34.538C313.426 34.58 314.224 34.58 314.476 34.566C314.728 34.566 314.812 34.496 314.812 34.258V23.394ZM306.132 25.2V27.118H308.848V25.2H306.132ZM304.62 23.716H310.458V28.616H304.62V23.716ZM304.228 29.778H309.842V31.29H304.228V29.778ZM309.17 29.778H310.808C310.808 29.778 310.794 30.212 310.78 30.422C310.668 33.684 310.528 35.028 310.164 35.49C309.87 35.854 309.59 35.994 309.17 36.05C308.82 36.12 308.232 36.12 307.616 36.106C307.588 35.616 307.42 34.958 307.154 34.524C307.644 34.566 308.092 34.58 308.316 34.58C308.498 34.58 308.624 34.538 308.736 34.412C308.96 34.132 309.086 33.026 309.17 30.044V29.778ZM306.356 28.896H307.938C307.812 32.256 307.462 34.846 304.774 36.33C304.592 35.924 304.13 35.35 303.78 35.07C306.104 33.852 306.258 31.752 306.356 28.896ZM324.738 26.516V27.202H328.532V26.516H324.738ZM324.738 24.738V25.438H328.532V24.738H324.738ZM323.198 23.548H330.142V28.406H323.198V23.548ZM322.512 29.05H330.856V30.408H322.512V29.05ZM325.83 29.792H327.412V35.49L325.83 34.804V29.792ZM324.542 32.27C325.242 34.356 326.67 34.622 328.392 34.622C328.868 34.622 330.618 34.622 331.234 34.594C331.024 34.944 330.828 35.644 330.772 36.078H328.322C326.054 36.078 324.43 35.574 323.534 32.606L324.542 32.27ZM326.978 31.64H330.1V32.956H326.978V31.64ZM323.352 30.828L324.864 31.01C324.57 33.292 323.856 35.098 322.624 36.232C322.372 35.966 321.742 35.462 321.392 35.238C322.554 34.3 323.142 32.746 323.352 30.828ZM317.808 30.212C318.956 29.974 320.65 29.512 322.26 29.064L322.484 30.576C321.014 31.024 319.432 31.486 318.172 31.836L317.808 30.212ZM317.948 25.774H322.4V27.314H317.948V25.774ZM319.46 23.128H321V34.3C321 35.07 320.874 35.504 320.44 35.756C320.02 36.022 319.404 36.078 318.508 36.078C318.466 35.658 318.27 34.972 318.074 34.524C318.578 34.538 319.068 34.538 319.236 34.538C319.404 34.538 319.46 34.482 319.46 34.286V23.128ZM334.86 26.586L335.994 25.648C336.834 26.054 337.954 26.698 338.5 27.188L337.31 28.224C336.806 27.734 335.714 27.034 334.86 26.586ZM341.174 24.164H341.496L341.762 24.094L342.854 24.724C341.034 28.098 337.072 29.918 332.998 30.744C332.858 30.324 332.522 29.666 332.228 29.302C336.008 28.7 339.788 27.02 341.174 24.402V24.164ZM336.75 24.164H341.552V25.536H336.75V24.164ZM337.52 23.072L339.354 23.464C337.926 25.088 336.078 26.404 333.46 27.44C333.222 27.048 332.704 26.474 332.34 26.208C334.832 25.396 336.568 24.22 337.52 23.072ZM336.764 31.892L337.982 30.954C338.836 31.416 339.956 32.13 340.516 32.676L339.214 33.712C338.724 33.18 337.632 32.396 336.764 31.892ZM342.938 29.274H343.274L343.568 29.204L344.688 29.778C342.98 33.95 338.934 35.602 334.118 36.274C333.992 35.812 333.684 35.126 333.404 34.748C337.842 34.286 341.636 32.816 342.938 29.512V29.274ZM338.822 29.274H343.386V30.674H338.822V29.274ZM339.802 27.916L341.636 28.336C340.068 30.17 337.912 31.654 334.818 32.774C334.622 32.382 334.146 31.766 333.796 31.472C336.722 30.59 338.724 29.246 339.802 27.916Z" fill="#47A8BD"/>
<rect opacity="0.5" x="281" y="11" width="87" height="37" fill="white"/>
<rect x="105.949" y="94.9494" width="70.1012" height="40.1012" rx="3.7977" stroke="#E2DFDF" stroke-width="1.89885"/>
<path d="M130.262 113.402H136.716V114.844H130.262V113.402ZM127.756 116.538H140.286V118.092H127.756V116.538ZM133.146 115.642H134.868V119.968C134.868 120.836 134.658 121.27 133.986 121.522C133.328 121.746 132.432 121.774 131.242 121.774C131.13 121.298 130.822 120.584 130.556 120.15C131.452 120.178 132.502 120.178 132.782 120.178C133.062 120.178 133.146 120.108 133.146 119.912V115.642ZM136.17 113.402H136.59L136.94 113.318L138.004 114.13C137.038 115.166 135.652 116.258 134.28 116.916C134.084 116.636 133.636 116.174 133.384 115.95C134.462 115.39 135.652 114.396 136.17 113.71V113.402ZM127.924 110.84H140.132V114.27H138.466V112.324H129.506V114.27H127.924V110.84ZM137.626 108.712L139.446 109.244C138.802 110.168 138.074 111.12 137.5 111.736L136.128 111.232C136.66 110.546 137.29 109.496 137.626 108.712ZM128.862 109.398L130.29 108.754C130.794 109.3 131.354 110.056 131.578 110.602L130.052 111.302C129.856 110.784 129.338 109.986 128.862 109.398ZM132.39 109.09L133.874 108.53C134.322 109.146 134.798 110 134.98 110.56L133.384 111.176C133.244 110.616 132.81 109.734 132.39 109.09ZM142.484 109.44H152.48V111.05H142.484V109.44ZM144.052 112.856L145.186 111.764C146.264 112.534 147.902 113.696 148.7 114.424L147.51 115.698C146.768 114.942 145.172 113.71 144.052 112.856ZM151.976 109.44H153.684C153.684 109.44 153.684 110.084 153.684 110.308C153.6 117.42 153.474 119.814 152.914 120.612C152.494 121.242 152.06 121.452 151.444 121.536C150.8 121.634 149.75 121.606 148.868 121.564C148.854 121.116 148.616 120.416 148.308 119.968C149.372 120.038 150.268 120.038 150.716 120.038C151.01 120.038 151.164 119.982 151.318 119.8C151.822 119.282 151.906 116.342 151.976 109.79V109.44ZM142.246 118.302C144.276 117.714 147.566 116.594 150.534 115.544L150.842 117.084C148.07 118.134 145.018 119.212 142.82 119.996L142.246 118.302Z" fill="#944CA2"/>
<rect opacity="0.5" x="105" y="94" width="72" height="42" fill="white"/>
<defs>
<linearGradient id="paint0_linear_802_351" x1="317.137" y1="-34.0861" x2="259.402" y2="201.13" gradientUnits="userSpaceOnUse">
<stop offset="0.0171777" stop-color="white"/>
<stop offset="1" stop-color="#D7D7D7"/>
</linearGradient>
<linearGradient id="paint1_linear_802_351" x1="94.5942" y1="115.201" x2="55.6724" y2="116.04" gradientUnits="userSpaceOnUse">
<stop stop-color="white"/>
<stop offset="1" stop-color="#CCCCCC"/>
</linearGradient>
<linearGradient id="paint2_linear_802_351" x1="29.3055" y1="73.8021" x2="29.3055" y2="192.334" gradientUnits="userSpaceOnUse">
<stop stop-color="white"/>
<stop offset="1" stop-color="#CCCCCC"/>
</linearGradient>
</defs>
</svg>
