<svg width="25" height="25" viewBox="0 0 25 25" fill="none" xmlns="http://www.w3.org/2000/svg">
<path d="M10.4737 16.4492C10.337 16.4494 10.2016 16.4227 10.0752 16.3705C9.94879 16.3183 9.83397 16.2417 9.73728 16.145L5.31853 11.7252C5.21897 11.6292 5.13954 11.5143 5.08486 11.3873C5.03018 11.2602 5.00134 11.1235 5.00005 10.9852C4.99875 10.8469 5.02501 10.7097 5.07729 10.5817C5.12958 10.4536 5.20684 10.3373 5.30458 10.2394C5.40231 10.1415 5.51856 10.0641 5.64654 10.0116C5.77452 9.95917 5.91166 9.93271 6.04997 9.93382C6.18829 9.93492 6.32499 9.96356 6.45212 10.0181C6.57924 10.0726 6.69424 10.1518 6.7904 10.2513L10.4727 13.9335L17.1029 7.30542C17.2982 7.10996 17.5632 7.0001 17.8395 7C18.1158 6.9999 18.3809 7.10958 18.5763 7.3049C18.7718 7.50022 18.8817 7.76519 18.8818 8.04151C18.8819 8.31783 18.7722 8.58288 18.5769 8.77834L11.2102 16.145C11.1135 16.2417 10.9987 16.3183 10.8723 16.3705C10.7459 16.4227 10.6105 16.4494 10.4737 16.4492V16.4492Z" fill="#307351"/>
</svg>
