<svg width="128" height="114" viewBox="0 0 128 114" fill="none" xmlns="http://www.w3.org/2000/svg">
<path d="M48 36.968C48 35.328 49.328 34 50.968 34H51.032C52.672 34 54 35.328 54 36.968V43.032C54 44.672 52.672 46 51.032 46H50.968C50.1808 46 49.4259 45.6873 48.8693 45.1307C48.3127 44.5741 48 43.8192 48 43.032V36.968ZM74 36.968C74 35.328 75.328 34 76.968 34H77.032C78.672 34 80 35.328 80 36.968V43.032C80 44.672 78.672 46 77.032 46H76.968C76.1808 46 75.4259 45.6873 74.8693 45.1307C74.3127 44.5741 74 43.8192 74 43.032V36.968Z" fill="#47A8BD"/>
<path d="M68 104C71.72 104 75.348 103.576 78.828 102.776C86.6 107.196 93.208 110.824 96.856 112.64C98.856 113.636 101 114 103.076 114C108.17 114 113.056 111.976 116.658 108.374C120.26 104.772 122.284 99.8863 122.284 94.792V94.46C122.284 90.9362 121.331 87.4781 119.527 84.4516C117.722 81.4251 115.132 78.9429 112.032 77.268L111.248 76.848C111.74 75.832 112.196 74.796 112.612 73.74C117.388 71.608 121.409 68.0855 124.152 63.6324C126.894 59.1793 128.23 54.0027 127.984 48.7786C127.739 43.5546 125.924 38.5259 122.776 34.3495C119.628 30.1731 115.294 27.043 110.34 25.368C106.242 17.7013 100.138 11.2917 92.6812 6.82376C85.224 2.35579 76.6932 -0.00275496 68 2.41496e-06H60C51.3069 -0.00188623 42.7766 2.35702 35.3195 6.8249C27.8625 11.2928 21.7588 17.7019 17.66 25.368C12.7088 27.0462 8.37822 30.1777 5.23325 34.3539C2.08828 38.5301 0.274885 43.5571 0.0296032 48.7793C-0.215679 54.0014 1.11854 59.1763 3.85822 63.6289C6.5979 68.0815 10.6159 71.605 15.388 73.74C16.032 75.368 16.768 76.948 17.58 78.484L16.568 79.028C13.7857 80.5318 11.4617 82.76 9.84214 85.4766C8.22258 88.1933 7.3677 91.2972 7.368 94.46V94.792C7.368 99.3545 9.17988 103.73 12.4053 106.957C15.6307 110.184 20.0055 111.998 24.568 112C26.42 112 28.244 111.676 29.9 110.852C33.236 109.188 39.132 105.964 46.168 101.98C50.548 103.292 55.188 104 59.996 104H68ZM73.812 8.42C93.148 11.236 108 27.88 108 48V56C108 62.092 106.64 67.868 104.2 73.04L90.328 65.548C91.944 61.0651 92.3981 56.2459 91.648 51.54C94.2077 49.9236 96.3161 47.6852 97.7766 45.0335C99.2371 42.3818 100.002 39.4033 100 36.376V35.816C100.001 33.4603 99.537 31.1275 98.6358 28.951C97.7347 26.7744 96.4137 24.7967 94.7481 23.1307C93.0825 21.4648 91.1051 20.1433 88.9287 19.2417C86.7524 18.3401 84.4197 17.876 82.064 17.876H45.936C41.1791 17.876 36.617 19.7657 33.2533 23.1293C29.8897 26.493 28 31.0551 28 35.812V36.372C27.9973 39.4 28.7619 42.3793 30.2224 45.0317C31.6829 47.6842 33.7918 49.9233 36.352 51.54C35.6046 56.226 36.0517 61.0248 37.652 65.492V67.64L24.62 74.68C21.5763 68.9245 19.99 62.5107 20 56V48C20 27.776 35.008 11.056 54.496 8.376C56.296 8.128 58.136 8 60 8H68C69.976 8 71.916 8.144 73.812 8.42ZM88 56C88 56.44 87.988 56.868 87.964 57.3C87.1209 56.2676 86.0585 55.4358 84.854 54.865C83.6494 54.2942 82.3329 53.9987 81 54C78.36 54 75.992 55.136 74.348 56.94L64.896 52.212C64.0535 51.7906 63.1291 51.5582 62.1874 51.531C61.2458 51.5039 60.3095 51.6826 59.4441 52.0547C58.5787 52.4269 57.8049 52.9835 57.1769 53.6856C56.5489 54.3878 56.0817 55.2186 55.808 56.12L53.304 57.372C52.4616 56.4452 51.4345 55.7048 50.2889 55.1985C49.1433 54.6921 47.9045 54.4311 46.652 54.432C44.036 54.432 41.68 55.548 40.036 57.328C39.9426 55.6047 40.0325 53.8763 40.304 52.172L40.72 49.572L38.492 48.16C36.5025 46.9042 34.8636 45.1648 33.7283 43.1041C32.593 41.0435 31.9984 38.7287 32 36.376V35.816C31.9995 33.9856 32.3596 32.173 33.0597 30.4817C33.7598 28.7904 34.7862 27.2537 36.0803 25.9592C37.3745 24.6647 38.9109 23.6378 40.602 22.9372C42.2931 22.2366 44.1056 21.876 45.936 21.876H82.064C85.7601 21.876 89.3047 23.3443 91.9182 25.9578C94.5318 28.5713 96 32.1159 96 35.812V36.372C96.0023 38.7254 95.408 41.0409 94.2727 43.1024C93.1374 45.1638 91.4981 46.9039 89.508 48.16L87.28 49.572L87.696 52.172C87.896 53.416 88 54.692 88 56ZM47.46 61.68C47.2816 61.976 47.1226 62.2833 46.984 62.6L41.892 65.352C41.8091 65.1572 41.7291 64.9612 41.652 64.764V63.432C41.6521 62.5128 41.9056 61.6113 42.3847 60.8268C42.8637 60.0422 43.5498 59.4049 44.3675 58.9849C45.1852 58.5649 46.1028 58.3785 47.0196 58.446C47.9364 58.5136 48.8167 58.8326 49.564 59.368C48.7163 59.9899 48.001 60.7785 47.46 61.68ZM70.332 95.24L70.788 95.9C69.868 95.964 68.936 95.996 68 95.996H60C58.16 95.996 56.344 95.872 54.568 95.632C56.156 93.5715 57.4422 91.2953 58.388 88.872L70.332 95.24ZM110.944 65.62C111.636 62.524 112 59.3 112 55.996V47.996C112 42.984 111.16 38.168 109.62 33.684C112.607 35.0811 115.153 37.2715 116.98 40.0164C118.808 42.7613 119.846 45.9552 119.983 49.2498C120.119 52.5445 119.349 55.8134 117.755 58.7001C116.161 61.5868 113.805 63.9804 110.944 65.62ZM17.056 65.62C14.194 63.9808 11.8371 61.587 10.2425 58.6999C8.6479 55.8127 7.87685 52.5431 8.01345 49.2477C8.15005 45.9523 9.18907 42.7577 11.0171 40.0125C12.8452 37.2672 15.3921 35.0767 18.38 33.68C16.7982 38.2884 15.9939 43.1277 16 48V56C16 59.308 16.364 62.524 17.056 65.62ZM60.896 60.212C60.3093 59.9192 59.863 59.4054 59.6552 58.7835C59.4474 58.1616 59.4952 57.4827 59.788 56.896C60.0808 56.3093 60.5947 55.863 61.2165 55.6552C61.8384 55.4474 62.5173 55.4952 63.104 55.788L72.276 60.372C65.34 66.904 65.368 80.676 69.976 90.52L51.66 80.752C50.9245 80.3591 50.318 79.7622 49.9134 79.0331C49.5088 78.3039 49.3232 77.4735 49.379 76.6415C49.4347 75.8095 49.7294 75.0112 50.2277 74.3426C50.726 73.6739 51.4067 73.1633 52.188 72.872C52.548 72.7384 52.8619 72.5041 53.0923 72.1969C53.3227 71.8897 53.4598 71.5227 53.4872 71.1397C53.5146 70.7567 53.4312 70.3739 53.2469 70.037C53.0627 69.7002 52.7853 69.4235 52.448 69.24L52.376 69.2C51.475 68.7052 50.8039 67.8769 50.5066 66.8929C50.2094 65.9089 50.3097 64.8475 50.7861 63.9367C51.2625 63.0258 52.0769 62.3379 53.0547 62.0207C54.0325 61.7035 55.0956 61.7822 56.016 62.24L59.104 63.788C59.3391 63.9081 59.5955 63.9804 59.8587 64.0009C60.1219 64.0214 60.3865 63.9896 60.6373 63.9073C60.8881 63.825 61.1201 63.6939 61.32 63.5216C61.5199 63.3492 61.6837 63.139 61.8019 62.903C61.9202 62.667 61.9905 62.4099 62.009 62.1466C62.0274 61.8833 61.9935 61.619 61.9093 61.3688C61.8251 61.1187 61.6922 60.8877 61.5183 60.6891C61.3444 60.4906 61.1329 60.3284 60.896 60.212ZM86 65.48L76.696 60.456C77.2519 59.5094 78.1042 58.7722 79.1211 58.3584C80.1379 57.9447 81.2628 57.8774 82.3217 58.1669C83.3807 58.4565 84.3147 59.0867 84.9796 59.9603C85.6445 60.8339 86.0031 61.9022 86 63V65.48Z" fill="url(#paint0_linear_770_219)"/>
<defs>
<linearGradient id="paint0_linear_770_219" x1="64.007" y1="0" x2="64.007" y2="114" gradientUnits="userSpaceOnUse">
<stop offset="0.28" stop-color="#47A8BD"/>
<stop offset="1" stop-color="#BC72CB"/>
</linearGradient>
</defs>
</svg>
