<svg width="96" height="96" viewBox="0 0 96 96" fill="none" xmlns="http://www.w3.org/2000/svg">
<path fill-rule="evenodd" clip-rule="evenodd" d="M88 18.6667C85.8783 18.6667 83.8434 19.5095 82.3432 21.0098C80.8429 22.5101 80 24.5449 80 26.6667V32H96V26.6667C96 24.5449 95.1571 22.5101 93.6569 21.0098C92.1566 19.5095 90.1217 18.6667 88 18.6667ZM96 37.3333H80V81.3333L88 93.3333L96 81.3333V37.3333ZM0 8V88C0 90.1217 0.842855 92.1566 2.34315 93.6569C3.84344 95.1571 5.87827 96 8 96H66.6667C68.7884 96 70.8232 95.1571 72.3235 93.6569C73.8238 92.1566 74.6667 90.1217 74.6667 88V8C74.6667 5.87827 73.8238 3.84344 72.3235 2.34315C70.8232 0.842855 68.7884 0 66.6667 0H8C5.87827 0 3.84344 0.842855 2.34315 2.34315C0.842855 3.84344 0 5.87827 0 8ZM37.3333 24C37.3333 23.2928 37.6143 22.6145 38.1144 22.1144C38.6145 21.6143 39.2928 21.3333 40 21.3333H61.3333C62.0406 21.3333 62.7189 21.6143 63.219 22.1144C63.7191 22.6145 64 23.2928 64 24C64 24.7072 63.7191 25.3855 63.219 25.8856C62.7189 26.3857 62.0406 26.6667 61.3333 26.6667H40C39.2928 26.6667 38.6145 26.3857 38.1144 25.8856C37.6143 25.3855 37.3333 24.7072 37.3333 24ZM40 32C39.2928 32 38.6145 32.281 38.1144 32.781C37.6143 33.2811 37.3333 33.9594 37.3333 34.6667C37.3333 35.3739 37.6143 36.0522 38.1144 36.5523C38.6145 37.0524 39.2928 37.3333 40 37.3333H61.3333C62.0406 37.3333 62.7189 37.0524 63.219 36.5523C63.7191 36.0522 64 35.3739 64 34.6667C64 33.9594 63.7191 33.2811 63.219 32.781C62.7189 32.281 62.0406 32 61.3333 32H40ZM37.3333 58.6667C37.3333 57.9594 37.6143 57.2811 38.1144 56.781C38.6145 56.281 39.2928 56 40 56H61.3333C62.0406 56 62.7189 56.281 63.219 56.781C63.7191 57.2811 64 57.9594 64 58.6667C64 59.3739 63.7191 60.0522 63.219 60.5523C62.7189 61.0524 62.0406 61.3333 61.3333 61.3333H40C39.2928 61.3333 38.6145 61.0524 38.1144 60.5523C37.6143 60.0522 37.3333 59.3739 37.3333 58.6667ZM40 66.6667C39.2928 66.6667 38.6145 66.9476 38.1144 67.4477C37.6143 67.9478 37.3333 68.6261 37.3333 69.3333C37.3333 70.0406 37.6143 70.7189 38.1144 71.219C38.6145 71.7191 39.2928 72 40 72H61.3333C62.0406 72 62.7189 71.7191 63.219 71.219C63.7191 70.7189 64 70.0406 64 69.3333C64 68.6261 63.7191 67.9478 63.219 67.4477C62.7189 66.9476 62.0406 66.6667 61.3333 66.6667H40ZM16 58.6667V66.6667H24V58.6667H16ZM13.3333 53.3333H26.6667C27.3739 53.3333 28.0522 53.6143 28.5523 54.1144C29.0524 54.6145 29.3333 55.2928 29.3333 56V69.3333C29.3333 70.0406 29.0524 70.7189 28.5523 71.219C28.0522 71.7191 27.3739 72 26.6667 72H13.3333C12.6261 72 11.9478 71.7191 11.4477 71.219C10.9476 70.7189 10.6667 70.0406 10.6667 69.3333V56C10.6667 55.2928 10.9476 54.6145 11.4477 54.1144C11.9478 53.6143 12.6261 53.3333 13.3333 53.3333ZM31.2187 25.8853C31.7044 25.3824 31.9732 24.7088 31.9671 24.0096C31.9611 23.3104 31.6806 22.6416 31.1862 22.1472C30.6918 21.6527 30.0229 21.3723 29.3237 21.3662C28.6245 21.3601 27.9509 21.6289 27.448 22.1147L18.6667 30.896L15.2187 27.448C14.7157 26.9622 14.0421 26.6935 13.3429 26.6995C12.6437 26.7056 11.9749 26.9861 11.4805 27.4805C10.9861 27.9749 10.7056 28.6437 10.6995 29.3429C10.6935 30.0421 10.9622 30.7157 11.448 31.2187L18.6667 38.4373L31.2187 25.8853Z" fill="url(#paint0_linear_770_177)"/>
<defs>
<linearGradient id="paint0_linear_770_177" x1="48" y1="0" x2="48" y2="96" gradientUnits="userSpaceOnUse">
<stop offset="0.275" stop-color="#47A8BD"/>
<stop offset="1" stop-color="#BC72CB"/>
</linearGradient>
</defs>
</svg>
