<svg width="1em" height="1em" viewBox="0 0 21 20" fill="none" xmlns="http://www.w3.org/2000/svg">
<path d="M10.4878 0C4.89584 0 0.346436 4.486 0.346436 10C0.346436 15.514 4.89584 20 10.4878 20C16.0797 20 20.6291 15.514 20.6291 10C20.6291 4.486 16.0797 0 10.4878 0ZM8.46053 14.413L5.42254 11.4238C5.02238 11.0301 5.02158 10.3851 5.42076 9.99038V9.99038C5.81234 9.60316 6.44238 9.60244 6.83484 9.98876L8.4585 11.587L13.1204 6.99008C13.5124 6.60352 14.1422 6.60352 14.5343 6.99008V6.99008C14.9341 7.38438 14.9341 8.02962 14.5343 8.42392L8.46053 14.413Z" fill="#307351"/>
</svg>
