<svg width="22" height="22" viewBox="0 0 22 22" fill="#fff" xmlns="http://www.w3.org/2000/svg">
<path d="M19.25 9.16665C19.4931 9.16665 19.7263 9.07007 19.8982 8.89816C20.0701 8.72625 20.1667 8.49309 20.1667 8.24998V5.49998C20.1667 5.30763 20.1061 5.12017 19.9936 4.96419C19.881 4.80821 19.7222 4.69163 19.5397 4.63098L11.2897 1.88098C11.1016 1.81848 10.8984 1.81848 10.7103 1.88098L2.46034 4.63098C2.27781 4.69163 2.11901 4.80821 2.00647 4.96419C1.89392 5.12017 1.83335 5.30763 1.83334 5.49998V8.24998C1.83334 8.49309 1.92992 8.72625 2.10183 8.89816C2.27374 9.07007 2.5069 9.16665 2.75001 9.16665H3.66668V15.752C3.13197 15.9403 2.66868 16.2896 2.34042 16.7517C2.01216 17.2139 1.83503 17.7664 1.83334 18.3333V20.1666C1.83334 20.4098 1.92992 20.6429 2.10183 20.8148C2.27374 20.9867 2.5069 21.0833 2.75001 21.0833H19.25C19.4931 21.0833 19.7263 20.9867 19.8982 20.8148C20.0701 20.6429 20.1667 20.4098 20.1667 20.1666V18.3333C20.165 17.7664 19.9879 17.2139 19.6596 16.7517C19.3313 16.2896 18.868 15.9403 18.3333 15.752V9.16665H19.25ZM18.3333 19.25H3.66668V18.3333C3.66692 18.0903 3.76357 17.8573 3.93543 17.6854C4.10729 17.5135 4.3403 17.4169 4.58334 17.4166H17.4167C17.6597 17.4169 17.8927 17.5135 18.0646 17.6854C18.2364 17.8573 18.3331 18.0903 18.3333 18.3333V19.25ZM5.50001 15.5833V9.16665H7.33334V15.5833H5.50001ZM9.16668 15.5833V9.16665H12.8333V15.5833H9.16668ZM14.6667 15.5833V9.16665H16.5V15.5833H14.6667ZM3.66668 7.33331V6.15998L11 3.71614L18.3333 6.1609V7.33331H3.66668Z" fill="white"/>
</svg>
